<svg xmlns="http://www.w3.org/2000/svg" viewBox="0 0 322.079 36.678">
  <path fill="#1d1d1b" d="M320.419 36.335h1.66V16.357h-1.66v9.102h-9.703v-9.102h-1.66v19.978h1.66V26.92h9.703v9.416Zm-23.985.343c3.206 0 5.124-1.545 6.154-4.35l-1.317-.773c-.744 2.376-2.118 3.635-4.837 3.635-3.32 0-5.295-2.433-5.295-7.04v-3.607c0-4.608 1.975-7.04 5.295-7.04 2.576 0 3.922 1.173 4.694 3.434l1.346-.802c-1.088-2.69-2.863-4.12-6.04-4.12-4.35 0-7.07 2.89-7.07 10.331 0 7.442 2.72 10.332 7.07 10.332m-13.137-.343v-1.374h-2.604v-17.23h2.604v-1.374h-6.87v1.374h2.606v17.23h-2.605v1.374h6.869ZM259.714 26.06v-8.243h5.552c1.947 0 2.977 1.088 2.977 3.206v1.831c0 2.118-1.03 3.206-2.977 3.206h-5.552Zm0 1.402h4.722l4.208 8.873h1.83l-4.406-8.9c2.604-.287 3.949-2.119 3.949-5.525 0-3.72-1.602-5.553-4.693-5.553h-7.27v19.978h1.66v-8.873Zm-11.706 8.873h2.147V16.357h-1.603v13.567l.114 4.436h-.2l-2.118-4.436-7.098-13.567h-2.147v19.978h1.603V22.768l-.115-4.436h.2l2.119 4.436 7.098 13.567Zm-17.888 0v-1.374h-2.605v-17.23h2.605v-1.374h-6.87v1.374h2.605v17.23h-2.604v1.374h6.869Zm-13.051 0v-1.46h-8.93V26.92h8.472v-1.46h-8.472v-7.642h8.93v-1.46h-10.59v19.978h10.59Zm-20.178 0h1.66V16.357h-1.66v9.102h-9.703v-9.102h-1.66v19.978h1.66V26.92h9.703v9.416Zm-57.736 0h2.147V16.357h-1.603v13.567l.115 4.436h-.201l-2.118-4.436-7.098-13.567h-2.146v19.978h1.602V22.768l-.114-4.436h.2l2.118 4.436 7.098 13.567Zm-18.002 0v-1.46h-8.93V26.92h8.472v-1.46h-8.472v-7.642h8.93v-1.46h-10.59v19.978h10.59Zm-23.326.343c3.749 0 6.01-1.889 6.01-5.638 0-3.177-1.402-4.694-4.923-5.553l-1.602-.4c-2.548-.63-3.635-1.603-3.635-3.807 0-2.69 1.545-3.835 4.207-3.835 2.261 0 3.463.801 4.522 2.461l1.231-.887c-1.259-1.975-2.92-3.005-5.696-3.005-3.549 0-5.867 1.717-5.867 5.266 0 3.063 1.517 4.522 4.894 5.352l1.603.401c2.604.63 3.663 1.746 3.663 4.036 0 2.805-1.545 4.178-4.407 4.178-2.347 0-3.807-1.087-5.038-2.89l-1.23.973c1.373 2.032 3.348 3.348 6.268 3.348M75.388 26.06v-8.243h5.552c1.947 0 2.977 1.088 2.977 3.206v1.831c0 2.118-1.03 3.206-2.977 3.206h-5.552Zm0 1.402h4.722l4.208 8.873h1.831l-4.407-8.9c2.604-.287 3.95-2.119 3.95-5.525 0-3.72-1.603-5.553-4.694-5.553h-7.27v19.978h1.66v-8.873ZM64.14 36.335h1.66V16.357h-1.66v9.102h-9.703v-9.102h-1.66v19.978h1.66V26.92h9.703v9.416Zm-18.461 0v-1.46H36.75V26.92h8.471v-1.46H36.75v-7.642h8.929v-1.46H35.09v19.978h10.589ZM14.854 16.357V28.98c0 5.381 1.603 7.7 6.24 7.7s6.239-2.319 6.239-7.7V16.357h-1.66v12.88c0 4.15-1.087 5.953-4.579 5.953s-4.579-1.803-4.579-5.953v-12.88h-1.661ZM9.531 36.335v-1.46H1.66V16.357H0v19.978h9.531Z"/>
  <path fill="#0062a1" d="M181.854 0h-5.467l-15.029 36.283h5.467L181.854 0zm-9.844 0h-5.467l-15.029 36.283h5.467L172.01 0z"/>
</svg>
